<svg width="20" height="20" viewBox="0 0 20 20" fill="none" xmlns="http://www.w3.org/2000/svg">
  <g clip-path="url(#clip0_73_3274)">
    <path
      d="M4.87256 16.4833L7.45193 19.0627L8.07693 18.4377L7.40756 15.092"
      stroke="white"
      stroke-miterlimit="10"
      stroke-linecap="round"
      stroke-linejoin="round"
    />
    <path
      d="M3.78128 15.3919L1.2019 12.8125L1.8269 12.1875L5.17253 12.8569"
      stroke="white"
      stroke-miterlimit="10"
      stroke-linecap="round"
      stroke-linejoin="round"
    />
    <path
      d="M12.0532 11.3051L16.827 19.0626L18.702 17.1876L15.5688 7.78882"
      stroke="white"
      stroke-miterlimit="10"
      stroke-linecap="round"
      stroke-linejoin="round"
    />
    <path
      d="M7.35315 7.2232L8.9594 8.21133L12.4756 4.6957L9.83252 3.81445"
      stroke="white"
      stroke-miterlimit="10"
      stroke-linecap="round"
      stroke-linejoin="round"
    />
    <path
      d="M6.90256 4.13828C7.24411 3.78465 7.4331 3.31102 7.42882 2.8194C7.42455 2.32778 7.22736 1.85751 6.87972 1.50987C6.53208 1.16223 6.06181 0.965036 5.57019 0.960764C5.07857 0.956492 4.60494 1.14548 4.25131 1.48703L4.01444 1.72328L3.77756 1.48703C3.42393 1.14548 2.9503 0.956492 2.45868 0.960764C1.96706 0.965036 1.49679 1.16223 1.14915 1.50987C0.80151 1.85751 0.604319 2.32778 0.600046 2.8194C0.595774 3.31102 0.784764 3.78465 1.12631 4.13828L1.36256 4.37515L4.01444 7.02703L6.90256 4.13828Z"
      fill="#8080FF"
    />
    <path
      d="M15.5926 1.57824C16.0028 1.16798 16.5593 0.9375 17.1395 0.9375C17.7196 0.9375 18.2761 1.16798 18.6863 1.57824C19.0966 1.98849 19.3271 2.54492 19.3271 3.12511C19.3271 3.7053 19.0966 4.26173 18.6863 4.67199L9.31133 14.047L2.82696 17.6057C2.80328 17.6185 2.77611 17.6233 2.74949 17.6194C2.72287 17.6155 2.69821 17.6032 2.67919 17.5841C2.66017 17.5651 2.64779 17.5405 2.64389 17.5138C2.64 17.4872 2.6448 17.46 2.65758 17.4364L6.21633 10.9532L15.5926 1.57824Z"
      stroke="white"
      stroke-miterlimit="10"
      stroke-linecap="round"
      stroke-linejoin="round"
    />
  </g>
  <defs>
    <clipPath id="clip0_73_3274">
      <rect width="20" height="20" fill="white" />
    </clipPath>
  </defs>
</svg>
