<svg width="478" height="872" viewBox="0 0 478 872" fill="none" xmlns="http://www.w3.org/2000/svg">
  <g filter="url(#filter0_d_201_5)">
    <rect
      x="58"
      y="40"
      width="362"
      height="756"
      rx="44"
      fill="url(#paint0_linear_201_5)"
      shape-rendering="crispEdges"
    />
  </g>
  <rect
    opacity="0.35"
    x="367.852"
    y="62.2606"
    width="27.8186"
    height="14.0898"
    rx="2.86213"
    stroke="white"
    stroke-width="1.32098"
  />
  <path
    opacity="0.4"
    d="M397.655 66.5854V72.0246C398.721 71.5639 399.414 70.4923 399.414 69.305C399.414 68.1177 398.721 67.0461 397.655 66.5854"
    fill="white"
  />
  <rect x="369.842" y="64.3196" width="23.8415" height="9.9717" rx="1.76131" fill="white" />
  <path
    fill-rule="evenodd"
    clip-rule="evenodd"
    d="M348.978 65.2098C351.824 65.2099 354.561 66.2977 356.623 68.2483C356.779 68.3989 357.027 68.397 357.18 68.2441L358.664 66.7536C358.742 66.676 358.785 66.5709 358.784 66.4616C358.784 66.3522 358.739 66.2476 358.661 66.171C353.248 61.0101 344.708 61.0101 339.294 66.171C339.216 66.2476 339.171 66.3521 339.171 66.4615C339.17 66.5708 339.213 66.6759 339.29 66.7536L340.775 68.2441C340.928 68.3973 341.177 68.3992 341.332 68.2483C343.395 66.2976 346.132 65.2098 348.978 65.2098ZM348.977 70.0595C350.541 70.0595 352.048 70.6376 353.207 71.6817C353.364 71.8298 353.611 71.8266 353.764 71.6744L355.247 70.1839C355.325 70.1057 355.368 69.9997 355.367 69.8894C355.366 69.7792 355.321 69.6741 355.241 69.5975C351.712 66.3315 346.246 66.3315 342.716 69.5975C342.637 69.6741 342.591 69.7793 342.59 69.8895C342.589 69.9998 342.633 70.1058 342.711 70.1839L344.193 71.6744C344.346 71.8266 344.593 71.8298 344.75 71.6817C345.908 70.6383 347.415 70.0602 348.977 70.0595ZM351.949 73.3222C351.951 73.4327 351.908 73.5393 351.828 73.6167L349.263 76.1919C349.188 76.2676 349.085 76.3102 348.978 76.3102C348.872 76.3102 348.769 76.2676 348.694 76.1919L346.128 73.6167C346.049 73.5392 346.005 73.4326 346.008 73.3221C346.01 73.2116 346.058 73.1069 346.141 73.0328C347.779 71.6545 350.178 71.6545 351.816 73.0328C351.899 73.107 351.947 73.2117 351.949 73.3222Z"
    fill="white"
  />
  <path
    fill-rule="evenodd"
    clip-rule="evenodd"
    d="M329.448 62.3H328.129C327.401 62.3 326.811 62.8881 326.811 63.6135V74.9963C326.811 75.7216 327.401 76.3097 328.129 76.3097H329.448C330.176 76.3097 330.766 75.7216 330.766 74.9963V63.6135C330.766 62.8881 330.176 62.3 329.448 62.3ZM321.975 65.3654H323.293C324.021 65.3654 324.612 65.9534 324.612 66.6788V74.997C324.612 75.7224 324.021 76.3104 323.293 76.3104H321.975C321.246 76.3104 320.656 75.7224 320.656 74.997V66.6788C320.656 65.9534 321.246 65.3654 321.975 65.3654ZM317.138 68.4292H315.82C315.092 68.4292 314.501 69.0172 314.501 69.7426V74.9962C314.501 75.7216 315.092 76.3096 315.82 76.3096H317.138C317.867 76.3096 318.457 75.7216 318.457 74.9962V69.7426C318.457 69.0172 317.867 68.4292 317.138 68.4292ZM310.987 71.0559H309.669C308.94 71.0559 308.35 71.6439 308.35 72.3693V74.9961C308.35 75.7215 308.94 76.3095 309.669 76.3095H310.987C311.715 76.3095 312.306 75.7215 312.306 74.9961V72.3693C312.306 71.6439 311.715 71.0559 310.987 71.0559Z"
    fill="white"
  />
  <defs>
    <filter
      id="filter0_d_201_5"
      x="0"
      y="0"
      width="478"
      height="872"
      filterUnits="userSpaceOnUse"
      color-interpolation-filters="sRGB"
    >
      <feFlood flood-opacity="0" result="BackgroundImageFix" />
      <feColorMatrix
        in="SourceAlpha"
        type="matrix"
        values="0 0 0 0 0 0 0 0 0 0 0 0 0 0 0 0 0 0 127 0"
        result="hardAlpha"
      />
      <feOffset dy="18" />
      <feGaussianBlur stdDeviation="29" />
      <feComposite in2="hardAlpha" operator="out" />
      <feColorMatrix type="matrix" values="0 0 0 0 0 0 0 0 0 0 0 0 0 0 0 0 0 0 0.45 0" />
      <feBlend mode="normal" in2="BackgroundImageFix" result="effect1_dropShadow_201_5" />
      <feBlend mode="normal" in="SourceGraphic" in2="effect1_dropShadow_201_5" result="shape" />
    </filter>
    <linearGradient
      id="paint0_linear_201_5"
      x1="234.958"
      y1="40"
      x2="234.958"
      y2="511.15"
      gradientUnits="userSpaceOnUse"
    >
      <stop offset="0.830066" stop-color="#000019" />
      <stop offset="1" stop-color="#000019" stop-opacity="0.9" />
    </linearGradient>
  </defs>
</svg>
